# Blender v2.69 (sub 0) OBJ File: 'bartpicture.blend'
# www.blender.org
mtllib bartpicture.mtl
o Cube.001
v -0.235439 0.642198 0.046025
v -0.235439 0.642198 -0.039698
v 0.235439 0.642198 -0.039698
v 0.235439 0.642198 0.046025
v -0.235440 0.056027 0.046025
v -0.235439 0.056027 -0.039698
v 0.235440 0.056027 -0.039698
v 0.235439 0.056027 0.046025
vt 0.000000 0.000000
vt 0.000000 1.000000
vt 1.000000 0.000000
vt 1.000000 1.000000
vt 0.999327 -0.000476
vt 0.000673 -0.000476
vt 0.995336 1.000476
vt 0.000673 1.000476
vn 0.000000 1.000000 0.000000
vn 0.000000 -1.000000 0.000000
vn -1.000000 0.000000 0.000000
vn 0.000000 0.000000 -1.000000
vn 1.000000 0.000000 0.000001
vn -0.000000 -0.000000 1.000000
vn -1.000000 -0.000000 -0.000003
usemtl Material
s off
f 1/1/1 4/2/1 2/3/1
f 5/1/2 6/2/2 7/4/2
f 1/1/3 2/2/3 5/3/3
f 2/1/4 3/2/4 6/3/4
f 3/1/5 4/2/5 7/3/5
f 5/5/6 8/6/6 1/7/6
f 4/2/1 3/4/1 2/3/1
f 8/3/2 5/1/2 7/4/2
f 2/2/7 6/4/7 5/3/7
f 3/2/4 7/4/4 6/3/4
f 4/2/5 8/4/5 7/3/5
f 8/6/6 4/8/6 1/7/6
o Cube
v -0.287054 0.690689 0.042862
v -0.287054 0.690689 -0.042862
v 0.287054 0.690689 -0.042862
v 0.287054 0.690689 0.042862
v -0.287055 0.007536 0.042862
v -0.287054 0.007536 -0.042862
v 0.287055 0.007536 -0.042862
v 0.287054 0.007536 0.042862
vt 0.044137 1.048410
vt 0.955863 1.048410
vt 0.044137 -0.048410
vt 0.955863 -0.048410
vn 0.000000 1.000000 0.000000
vn 0.000000 -1.000000 -0.000000
vn -1.000000 0.000000 0.000000
vn 0.000000 0.000000 -1.000000
vn 1.000000 0.000000 0.000001
vn -0.000000 -0.000000 1.000000
vn -1.000000 -0.000000 -0.000004
usemtl Wood
s off
f 9/9/8 12/10/8 10/11/8
f 13/9/9 14/10/9 15/12/9
f 9/9/10 10/10/10 13/11/10
f 10/9/11 11/10/11 14/11/11
f 11/9/12 12/10/12 15/11/12
f 13/9/13 16/10/13 9/11/13
f 12/10/8 11/12/8 10/11/8
f 16/11/9 13/9/9 15/12/9
f 10/10/14 14/12/14 13/11/14
f 11/10/11 15/12/11 14/11/11
f 12/10/12 16/12/12 15/11/12
f 16/10/13 12/12/13 9/11/13
