# Blender v2.69 (sub 0) OBJ File: 'cardboardboxSmall.blend'
# www.blender.org
mtllib cardboardboxSmall.mtl
o Cube
v 0.184392 0.014902 -0.184392
v 0.184392 0.014902 0.184392
v -0.184392 0.014902 0.184392
v -0.184392 0.014902 -0.184392
v 0.184392 0.383687 -0.184392
v 0.184392 0.383687 0.184392
v -0.184392 0.383687 0.184392
v -0.184392 0.383687 -0.184392
vt 0.334375 0.128124
vt 0.334375 0.378081
vt 0.084418 0.128124
vt 0.964427 0.964469
vt 0.016867 0.964469
vt 0.964426 0.016910
vt 0.500000 0.499999
vt 0.500000 0.250043
vt 0.749957 0.499999
vt 0.775000 0.131206
vt 0.775000 0.381163
vt 0.525043 0.131207
vt 0.000087 0.499999
vt 0.000087 0.250043
vt 0.250043 0.499999
vt 0.250043 0.250043
vt 0.084418 0.378082
vt 0.016867 0.016911
vt 0.749956 0.250042
vt 0.525043 0.381163
vn 0.577349 -0.577349 -0.577349
vn 0.577349 -0.577349 0.577349
vn -0.577349 -0.577349 -0.577349
vn 0.577349 0.577349 -0.577349
vn -0.577349 0.577349 -0.577349
vn 0.577349 0.577349 0.577349
vn -0.577349 -0.577349 0.577349
vn -0.577349 0.577349 0.577349
usemtl Material
s 1
f 1/1/1 2/2/2 4/3/3
f 5/4/4 8/5/5 6/6/6
f 1/7/1 5/8/4 2/9/2
f 2/10/2 6/11/6 3/12/7
f 3/13/7 7/14/8 4/15/3
f 5/8/4 1/7/1 8/16/5
f 2/2/2 3/17/7 4/3/3
f 8/5/5 7/18/8 6/6/6
f 5/8/4 6/19/6 2/9/2
f 6/11/6 7/20/8 3/12/7
f 7/14/8 8/16/5 4/15/3
f 1/7/1 4/15/3 8/16/5
