# Blender v2.69 (sub 0) OBJ File: 'crate.blend'
# www.blender.org
mtllib crate.mtl
o Cube
v 0.578551 0.033802 -0.578551
v 0.578551 0.033802 0.578551
v -0.578551 0.033802 0.578551
v -0.578551 0.033802 -0.578551
v 0.578551 1.190904 -0.578551
v 0.578551 1.190904 0.578551
v -0.578551 1.190904 0.578551
v -0.578551 1.190904 -0.578551
vt 0.642878 0.673383
vt 0.642878 0.979330
vt 0.350638 0.673383
vt 0.976561 0.316642
vt 0.680312 0.316642
vt 0.976561 0.013573
vt 0.681384 0.653317
vt 0.681383 0.349575
vt 0.974922 0.653316
vt 0.976108 0.679521
vt 0.976108 0.978244
vt 0.683868 0.679521
vt 0.683205 0.651710
vt 0.683205 0.349375
vt 0.975445 0.651710
vt 0.647876 0.351182
vt 0.647877 0.651710
vt 0.350638 0.349376
vt 0.350638 0.979331
vt 0.680312 0.013573
vt 0.974921 0.349574
vt 0.683868 0.978244
vt 0.975445 0.349376
vt 0.350638 0.651710
vn 0.577349 -0.577349 -0.577349
vn 0.577349 -0.577349 0.577349
vn -0.577349 -0.577349 -0.577349
vn 0.577349 0.577349 -0.577349
vn -0.577349 0.577349 -0.577349
vn 0.577349 0.577349 0.577349
vn -0.577349 -0.577349 0.577349
vn -0.577349 0.577349 0.577349
usemtl Material
s 1
f 1/1/1 2/2/2 4/3/3
f 5/4/4 8/5/5 6/6/6
f 1/7/1 5/8/4 2/9/2
f 2/10/2 6/11/6 3/12/7
f 3/13/7 7/14/8 4/15/3
f 5/16/4 1/17/1 8/18/5
f 2/2/2 3/19/7 4/3/3
f 8/5/5 7/20/8 6/6/6
f 5/8/4 6/21/6 2/9/2
f 6/11/6 7/22/8 3/12/7
f 7/14/8 8/23/5 4/15/3
f 1/17/1 4/24/3 8/18/5
