# Blender v2.69 (sub 0) OBJ File: ''
# www.blender.org
mtllib steelCube.mtl
o Cube
v 0.550884 -0.550884 -0.550883
v 0.550884 -0.550884 0.550884
v -0.550884 -0.550884 0.550883
v -0.550883 -0.550884 -0.550884
v 0.550884 0.550884 -0.550883
v 0.550883 0.550884 0.550884
v -0.550884 0.550884 0.550883
v -0.550883 0.550884 -0.550884
vt 0.500000 0.499999
vt 0.500000 0.749956
vt 0.250043 0.499999
vt 0.500000 0.250043
vt 0.250043 0.250043
vt 0.500000 0.000087
vt 0.749957 0.499999
vt 0.500000 0.999913
vt 0.250043 0.749957
vt 0.000087 0.499999
vt 0.000087 0.250043
vt 0.250044 0.000087
vt 0.749956 0.250042
vt 0.250043 0.999913
vn 0.000000 -1.000000 0.000000
vn 0.000000 1.000000 0.000000
vn 1.000000 -0.000000 0.000000
vn -0.000000 -0.000000 1.000000
vn -1.000000 -0.000000 -0.000000
vn 0.000000 0.000000 -1.000000
vn 1.000000 0.000000 0.000001
usemtl Material
s off
f 1/1/1 2/2/1 4/3/1
f 5/4/2 8/5/2 6/6/2
f 1/1/3 5/4/3 2/7/3
f 2/2/4 6/8/4 3/9/4
f 3/10/5 7/11/5 4/3/5
f 5/4/6 1/1/6 8/5/6
f 2/2/1 3/9/1 4/3/1
f 8/5/2 7/12/2 6/6/2
f 5/4/7 6/13/7 2/7/7
f 6/8/4 7/14/4 3/9/4
f 7/11/5 8/5/5 4/3/5
f 1/1/6 4/3/6 8/5/6
