# Blender v2.69 (sub 0) OBJ File: 'table.blend'
# www.blender.org
mtllib table.mtl
o Cube.003
v 0.972567 0.007774 -0.413390
v 0.972567 0.007774 -0.592276
v 1.183642 0.007774 -0.592276
v 1.183642 0.007774 -0.413390
v 0.972567 0.956457 -0.413390
v 0.972567 0.956457 -0.592276
v 1.183642 0.956457 -0.592276
v 1.183642 0.956457 -0.413390
v 0.972567 0.007774 0.592321
v 0.972567 0.007774 0.413436
v 1.183642 0.007774 0.413436
v 1.183642 0.007774 0.592321
v 0.972567 0.956457 0.592321
v 0.972567 0.956457 0.413436
v 1.183642 0.956457 0.413436
v 1.183642 0.956457 0.592321
v -1.184210 0.007697 0.586893
v -1.184210 0.007697 0.408008
v -0.973135 0.007697 0.408008
v -0.973135 0.007697 0.586893
v -1.184210 0.956380 0.586893
v -1.184210 0.956380 0.408008
v -0.973135 0.956380 0.408008
v -0.973135 0.956380 0.586893
v -1.184210 0.007697 -0.418818
v -1.184210 0.007697 -0.597704
v -0.973135 0.007697 -0.597704
v -0.973135 0.007697 -0.418818
v -1.184210 0.956380 -0.418818
v -1.184210 0.956380 -0.597704
v -0.973135 0.956380 -0.597704
v -0.973135 0.956380 -0.418818
v 1.200000 0.923874 -0.600000
v 1.200000 0.923874 0.600000
v -1.200000 0.923874 0.600000
v -1.200000 0.923874 -0.600000
v 1.200001 1.076126 -0.600000
v 1.199999 1.076126 0.600000
v -1.200000 1.076126 0.600000
v -1.200000 1.076126 -0.600000
vt 0.386838 0.251172
vt 0.386838 0.374941
vt 0.263068 0.251172
vt 0.635434 0.251159
vt 0.635434 0.374929
vt 0.511664 0.251159
vt 0.510620 0.251196
vt 0.510620 0.374966
vt 0.386850 0.251196
vt 0.760248 0.251184
vt 0.760248 0.374954
vt 0.636478 0.251184
vt 0.000000 0.000000
vt 0.634377 0.497201
vt 0.510608 0.497202
vt 0.634377 0.373431
vt 0.386838 0.497202
vt 0.510607 0.373432
vt 0.263068 0.497202
vt 0.386838 0.373432
vt 0.758147 0.497201
vt 0.758147 0.373431
vt 0.758147 0.126628
vt 0.634377 0.126628
vt 0.758147 0.002858
vt 0.510607 0.126628
vt 0.634377 0.002858
vt 0.386838 0.126628
vt 0.510607 0.002858
vt 0.263068 0.126628
vt 0.386837 0.002858
vt 0.634377 0.128962
vt 0.758147 0.128961
vt 0.634377 0.252732
vt 0.263068 0.128962
vt 0.386838 0.128962
vt 0.263068 0.252731
vt 0.510607 0.128962
vt 0.386838 0.252732
vt 0.510607 0.252732
vt 0.703281 0.615735
vt 0.703873 0.795610
vt 0.296764 0.616488
vt 0.704459 0.980807
vt 0.297943 0.981560
vt 0.297350 0.801685
vt 0.703287 0.610412
vt 0.999932 0.615948
vt 0.703867 0.800932
vt 0.000061 0.616490
vt 0.000061 0.611166
vt 0.296767 0.611166
vt 0.263068 0.374942
vt 0.511664 0.374929
vt 0.386850 0.374966
vt 0.636478 0.374954
vt 0.263068 0.373432
vt 0.263068 0.002859
vt 0.758147 0.252731
vt 0.297356 0.796363
vt 0.999939 0.610625
vn -1.000000 0.000000 0.000000
vn 0.000000 0.000000 -1.000000
vn 1.000000 0.000000 0.000000
vn 0.000000 0.000000 1.000000
vn 0.000000 -1.000000 0.000000
vn 0.000000 1.000000 0.000000
vn 1.000000 -0.000003 0.000000
vn -0.000000 -0.000002 1.000000
vn -1.000000 -0.000005 -0.000000
vn 0.000000 0.000002 -1.000000
vn 1.000000 0.000005 0.000001
vn -1.000000 0.000001 -0.000001
usemtl Metal
s off
f 5/1/1 6/2/1 1/3/1
f 6/4/2 7/5/2 2/6/2
f 7/7/3 8/8/3 3/9/3
f 8/10/4 5/11/4 4/12/4
f 1/13/5 2/13/5 4/13/5
f 8/13/6 7/13/6 5/13/6
f 13/14/1 14/15/1 9/16/1
f 14/15/2 15/17/2 10/18/2
f 15/17/3 16/19/3 11/20/3
f 16/21/4 13/14/4 12/22/4
f 9/13/5 10/13/5 12/13/5
f 16/13/6 15/13/6 13/13/6
f 21/23/1 22/24/1 17/25/1
f 22/24/2 23/26/2 18/27/2
f 23/26/3 24/28/3 19/29/3
f 24/28/4 21/30/4 20/31/4
f 17/13/5 18/13/5 20/13/5
f 24/13/6 23/13/6 21/13/6
f 29/32/1 30/33/1 25/34/1
f 30/35/2 31/36/2 26/37/2
f 31/36/3 32/38/3 27/39/3
f 32/38/4 29/32/4 28/40/4
f 25/13/5 26/13/5 28/13/5
f 32/13/6 31/13/6 29/13/6
f 33/41/5 34/42/5 36/43/5
f 37/44/6 40/45/6 39/46/6
f 33/41/7 37/47/7 34/48/7
f 34/42/8 38/49/8 39/46/8
f 35/50/9 39/51/9 36/43/9
f 37/47/10 33/41/10 40/52/10
f 6/2/1 2/53/1 1/3/1
f 7/5/2 3/54/2 2/6/2
f 8/8/3 4/55/3 3/9/3
f 5/11/4 1/56/4 4/12/4
f 2/13/5 3/13/5 4/13/5
f 7/13/6 6/13/6 5/13/6
f 14/15/1 10/18/1 9/16/1
f 15/17/2 11/20/2 10/18/2
f 16/19/3 12/57/3 11/20/3
f 13/14/4 9/16/4 12/22/4
f 10/13/5 11/13/5 12/13/5
f 15/13/6 14/13/6 13/13/6
f 22/24/1 18/27/1 17/25/1
f 23/26/2 19/29/2 18/27/2
f 24/28/3 20/31/3 19/29/3
f 21/30/4 17/58/4 20/31/4
f 18/13/5 19/13/5 20/13/5
f 23/13/6 22/13/6 21/13/6
f 30/33/1 26/59/1 25/34/1
f 31/36/2 27/39/2 26/37/2
f 32/38/3 28/40/3 27/39/3
f 29/32/4 25/34/4 28/40/4
f 26/13/5 27/13/5 28/13/5
f 31/13/6 30/13/6 29/13/6
f 34/42/5 35/60/5 36/43/5
f 38/49/6 37/44/6 39/46/6
f 37/47/11 38/61/11 34/48/11
f 35/60/4 34/42/4 39/46/4
f 39/51/12 40/52/12 36/43/12
f 33/41/10 36/43/10 40/52/10
