# Blender v2.69 (sub 0) OBJ File: 'metaldoor.blend'
# www.blender.org
mtllib metaldoor_000003.mtl
o Cube.006_Cube.007
v -0.700000 2.412087 0.101791
v -0.700000 2.412087 -0.104526
v 0.700000 2.412087 -0.104526
v 0.700000 2.412087 0.101791
v -0.700000 3.011311 0.101791
v -0.700000 3.011311 -0.104526
v 0.700000 3.011311 -0.104526
v 0.700000 3.011311 0.101791
v 1.000000 0.010299 -0.105494
v 1.000000 0.010299 0.105494
v 0.700000 0.010299 0.105494
v 0.700000 0.010299 -0.105494
v 1.000000 3.010299 -0.105494
v 1.000000 3.010299 0.105494
v 0.700000 3.010299 0.105494
v 0.700000 3.010299 -0.105494
v -0.700000 0.010299 -0.105494
v -0.700000 0.010299 0.105494
v -1.000000 0.010299 0.105494
v -1.000000 0.010299 -0.105494
v -0.700000 3.010299 -0.105494
v -0.700000 3.010299 0.105494
v -1.000000 3.010299 0.105494
v -1.000000 3.010299 -0.105494
vt 0.053512 0.688611
vt 0.031254 0.747907
vt 0.046908 0.740752
vt 0.968746 0.747907
vt 0.030936 0.172017
vt 0.946488 0.688611
vt 0.999863 0.685332
vt 0.045074 0.810432
vt 0.954926 0.810432
vt 0.046993 0.174981
vt 0.000137 0.685333
vt 0.953092 0.740752
vt 0.969064 0.172016
vt 0.953006 0.174981
vt 0.285524 0.456751
vt 0.171371 0.456752
vt 0.285524 0.342598
vt 0.285522 0.000137
vt 0.285522 0.114291
vt 0.171368 0.000138
vt 0.285526 0.685057
vt -0.066890 0.371710
vt 1.051321 0.371710
vt -0.066890 0.596026
vt 0.628258 0.342599
vt 0.742412 0.342598
vt 0.628259 0.456752
vt 0.628258 0.114291
vt 0.628258 0.000137
vt 0.742412 0.000137
vt 0.742412 0.456752
vt 0.742413 0.685059
vt 1.048654 0.629981
vt -0.078772 0.629980
vt 1.048654 0.402085
vt -0.031991 0.692092
vt -0.031992 0.483212
vt 1.025095 0.692088
vt -0.018221 0.595224
vt -0.018221 0.395575
vt 1.029969 0.595223
vt 0.171370 0.342599
vt 0.171369 0.114292
vt 0.742412 0.114291
vt 0.171373 0.685058
vt 1.051321 0.596026
vt 0.628259 0.685060
vt -0.078772 0.402084
vt 1.025094 0.483209
vt 1.029969 0.395574
vn -1.000000 0.000000 0.000000
vn 0.000000 0.000000 -1.000000
vn 1.000000 0.000000 0.000000
vn 0.000000 0.000000 1.000000
vn 0.000000 -1.000000 0.000000
vn 0.000000 1.000000 0.000000
vn 0.577349 -0.577349 -0.577349
vn 0.577349 -0.577349 0.577349
vn -0.577349 -0.577349 -0.577349
vn 0.577349 0.577349 -0.577349
vn -0.577349 0.577349 -0.577349
vn 0.577349 0.577349 0.577349
vn -0.577349 0.577349 0.577349
vn -0.577349 -0.577349 0.577349
usemtl Concrete
s off
f 5/1/1 6/2/1 1/3/1
f 6/2/2 7/4/2 2/5/2
f 7/4/3 8/6/3 3/7/3
f 8/8/4 5/9/4 4/10/4
f 1/3/5 2/11/5 4/12/5
f 8/6/6 7/4/6 5/1/6
f 6/2/1 2/11/1 1/3/1
f 7/4/2 3/13/2 2/5/2
f 8/6/3 4/12/3 3/7/3
f 5/9/4 1/14/4 4/10/4
f 2/11/5 3/7/5 4/12/5
f 7/4/6 6/2/6 5/1/6
s 1
f 9/15/7 10/16/8 12/17/9
f 13/18/10 16/19/11 14/20/12
f 9/15/7 13/21/10 10/16/8
f 13/22/10 9/23/7 16/24/11
f 17/25/7 18/26/8 20/27/9
f 21/28/10 24/29/11 23/30/13
f 19/31/14 23/32/13 20/27/9
f 21/33/10 17/34/7 24/35/11
f 11/36/14 10/37/8 15/38/13
f 19/39/14 18/40/8 23/41/13
f 11/42/14 15/43/13 12/17/9
f 21/28/10 22/44/12 17/25/7
f 10/16/8 11/42/14 12/17/9
f 16/19/11 15/43/13 14/20/12
f 13/21/10 14/45/12 10/16/8
f 9/23/7 12/46/9 16/24/11
f 18/26/8 19/31/14 20/27/9
f 22/44/12 21/28/10 23/30/13
f 23/32/13 24/47/11 20/27/9
f 17/34/7 20/48/9 24/35/11
f 10/37/8 14/49/12 15/38/13
f 18/40/8 22/50/12 23/41/13
f 15/43/13 16/19/11 12/17/9
f 22/44/12 18/26/8 17/25/7
o Cube.004_Cube.005
v 0.097047 1.050114 -1.156137
v 0.086365 1.050114 -1.163870
v 0.031391 1.050114 -1.087929
v 0.042073 1.050114 -1.080197
v 0.097047 1.370969 -1.156137
v 0.086365 1.370969 -1.163870
v 0.031391 1.370969 -1.087929
v 0.042073 1.370969 -1.080197
v -0.153243 1.193469 -0.989724
v -0.115746 1.193469 -0.962579
v 0.034395 1.193469 -1.169981
v -0.003102 1.193469 -1.197126
v -0.153243 1.239761 -0.989724
v -0.115746 1.239761 -0.962579
v 0.034395 1.239761 -1.169981
v -0.003102 1.239761 -1.197126
v 0.007188 1.194923 -1.135023
v 0.044686 1.194923 -1.107878
v 0.071831 1.194923 -1.145375
v 0.034333 1.194923 -1.172520
v 0.007188 1.241214 -1.135023
v 0.044686 1.241214 -1.107878
v 0.071831 1.241214 -1.145375
v 0.034333 1.241214 -1.172520
v 0.195318 1.196589 -0.767800
v 0.157821 1.196589 -0.794944
v 0.307962 1.196589 -1.002346
v 0.345459 1.196589 -0.975201
v 0.195318 1.242880 -0.767800
v 0.157821 1.242880 -0.794944
v 0.307962 1.242880 -1.002346
v 0.345459 1.242880 -0.975201
v 0.283249 1.198042 -0.965583
v 0.245751 1.198042 -0.992728
v 0.272896 1.198042 -1.030225
v 0.310393 1.198042 -1.003080
v 0.283249 1.244334 -0.965583
v 0.245751 1.244334 -0.992728
v 0.272896 1.244334 -1.030225
v 0.310393 1.244334 -1.003080
v 0.275245 1.053233 -1.057541
v 0.285927 1.053234 -1.049808
v 0.230952 1.053234 -0.973868
v 0.220271 1.053233 -0.981601
v 0.275245 1.374089 -1.057541
v 0.285927 1.374089 -1.049808
v 0.230952 1.374089 -0.973868
v 0.220271 1.374089 -0.981601
v 0.141353 0.012307 -1.229160
v 0.312259 0.012307 -1.105439
v -0.508687 0.012307 0.028602
v -0.679593 0.012307 -0.095120
v 0.141353 2.402009 -1.229160
v 0.312259 2.402009 -1.105438
v -0.508687 2.402009 0.028602
v -0.679594 2.402009 -0.095120
vt 0.333333 0.833333
vt 0.583333 0.833333
vt 0.333333 0.500000
vt 1.000000 0.500000
vt 0.666667 0.500000
vt 0.666667 0.750000
vt 0.333333 0.000000
vt 0.000000 0.000000
vt 0.916667 0.500000
vt 0.666667 0.000000
vt 0.250000 0.500000
vt 0.250000 1.000000
vt 0.000000 0.500000
vt 0.723182 0.361591
vt 0.903978 0.361591
vt 0.723182 0.180796
vt 0.000000 1.000000
vt 0.180796 1.000000
vt 0.723182 0.542387
vt 0.542387 0.361591
vt 1.000000 0.936323
vt 1.000000 0.755528
vt 0.000000 0.936323
vt 0.180796 0.000000
vt 0.361591 0.000000
vt 0.542387 1.000000
vt 0.542387 0.000000
vt 0.361591 1.000000
vt 0.723182 0.723182
vt 0.542387 0.723182
vt 0.542387 0.180796
vt 0.723182 0.180795
vt 0.903978 0.723182
vt 0.903978 0.542387
vt 0.723182 0.000000
vt 0.903978 0.000000
vt 0.542387 0.542387
vt 0.583333 0.500000
vt 1.000000 0.750000
vt 0.916667 0.000000
vt 0.333334 0.500000
vt 0.903978 0.180796
vt 0.000000 0.755528
vn -0.129093 -0.577319 -0.806207
vn -0.806207 -0.577319 0.129093
vn -0.129093 0.577319 -0.806207
vn -0.129093 0.577349 -0.806207
vn -0.806207 0.577319 0.129093
vn -0.806207 -0.577349 0.129093
vn -0.806207 0.577349 0.129093
vn -0.129093 -0.577349 -0.806207
vn 0.129093 0.577349 0.806207
vn 0.129093 -0.577349 0.806207
vn 0.806207 0.577349 -0.129093
vn 0.806207 -0.577349 -0.129093
vn 0.806207 -0.577319 -0.129093
vn 0.129093 -0.577319 0.806207
usemtl Metal
s 1
f 25/51/15 28/52/16 26/53/15
f 29/54/17 30/55/18 31/56/19
f 25/57/15 26/58/15 29/53/17
f 26/55/15 27/59/20 30/60/18
f 27/60/20 28/57/16 31/55/19
f 29/61/17 25/62/15 32/63/19
f 37/64/21 33/65/20 38/66/21
f 38/67/21 39/58/18 34/68/20
f 39/69/18 35/64/22 36/70/22
f 40/71/18 36/72/22 37/73/21
f 33/74/20 36/68/22 34/75/20
f 40/76/18 37/77/21 39/78/18
f 45/79/23 41/69/24 46/80/21
f 46/81/21 47/66/18 42/70/20
f 47/81/18 43/82/22 48/77/25
f 48/79/25 45/69/23 44/83/26
f 41/84/24 44/65/26 43/64/22
f 48/85/25 45/66/23 47/86/18
f 53/64/23 54/66/21 49/65/24
f 54/67/21 55/58/18 50/68/20
f 55/69/18 56/87/25 51/64/22
f 56/71/25 53/73/23 52/72/26
f 49/74/24 50/75/20 52/68/26
f 56/76/25 55/78/18 53/77/23
f 61/79/23 62/80/21 58/87/20
f 62/81/21 63/66/17 58/70/20
f 63/81/17 64/77/25 59/82/22
f 64/79/25 61/69/23 60/83/27
f 57/84/24 58/69/20 60/65/27
f 64/85/25 63/86/17 61/66/23
f 65/51/22 66/53/27 67/88/28
f 69/54/18 72/89/21 71/56/23
f 65/57/22 69/53/18 66/58/27
f 66/55/27 70/60/25 67/59/28
f 67/60/28 71/55/23 68/57/20
f 69/61/18 65/62/22 72/63/21
f 73/51/22 74/53/26 76/52/20
f 77/54/18 80/89/21 79/56/23
f 73/57/22 77/53/18 74/58/26
f 74/55/26 78/60/25 75/59/24
f 75/60/24 79/55/23 76/57/20
f 77/61/18 73/62/22 80/63/21
f 28/52/16 27/88/20 26/53/15
f 32/89/19 29/54/17 31/56/19
f 26/58/15 30/63/18 29/53/17
f 27/59/20 31/90/19 30/60/18
f 28/57/16 32/91/19 31/55/19
f 25/62/15 28/67/16 32/63/19
f 33/65/20 34/92/20 38/66/21
f 39/58/18 35/74/22 34/68/20
f 40/87/18 39/69/18 36/70/22
f 36/72/22 33/93/20 37/73/21
f 36/68/22 35/78/22 34/75/20
f 37/77/21 38/75/21 39/78/18
f 41/69/24 42/87/20 46/80/21
f 47/66/18 43/64/22 42/70/20
f 43/82/22 44/85/26 48/77/25
f 45/69/23 41/84/24 44/83/26
f 42/69/20 41/84/24 43/64/22
f 45/66/23 46/92/21 47/86/18
f 54/66/21 50/92/20 49/65/24
f 55/58/18 51/74/22 50/68/20
f 56/87/25 52/70/26 51/64/22
f 53/73/23 49/93/24 52/72/26
f 50/75/20 51/78/22 52/68/26
f 55/78/18 54/75/21 53/77/23
f 57/69/24 61/79/23 58/87/20
f 63/66/17 59/64/22 58/70/20
f 64/77/25 60/85/27 59/82/22
f 61/69/23 57/84/24 60/83/27
f 58/69/20 59/64/22 60/65/27
f 63/86/17 62/92/21 61/66/23
f 68/52/20 65/51/22 67/88/28
f 70/55/25 69/54/18 71/56/23
f 69/53/18 70/63/25 66/58/27
f 70/60/25 71/90/23 67/59/28
f 71/55/23 72/91/21 68/57/20
f 65/62/22 68/67/20 72/63/21
f 74/53/26 75/88/24 76/52/20
f 78/55/25 77/54/18 79/56/23
f 77/53/18 78/63/25 74/58/26
f 78/60/25 79/90/23 75/59/24
f 79/55/23 80/91/21 76/57/20
f 73/62/22 76/67/20 80/63/21
