# Blender v2.69 (sub 0) OBJ File: 'bartpicture.blend'
# www.blender.org
mtllib bartpicture.mtl
o Cube.001
v -0.200326 0.591074 0.025790
v -0.200326 0.591074 -0.010197
v 0.200326 0.591074 -0.010197
v 0.200326 0.591074 0.025790
v -0.200326 0.107151 0.025790
v -0.200325 0.107151 -0.010197
v 0.200326 0.107151 -0.010197
v 0.200326 0.107151 0.025790
vt 0.000000 0.000000
vt 0.000000 1.000000
vt 1.000000 0.000000
vt 1.000000 1.000000
vt 0.999327 -0.000476
vt 0.000673 -0.000476
vt 0.995336 1.000476
vt 0.000673 1.000476
vn 0.000000 1.000000 0.000000
vn 0.000000 -1.000000 0.000000
vn -1.000000 0.000000 0.000000
vn 0.000000 0.000000 -1.000000
vn 1.000000 0.000000 0.000003
vn -0.000000 -0.000000 1.000000
vn 0.000000 1.000000 0.000002
vn 0.000000 -1.000000 0.000001
vn -1.000000 -0.000000 -0.000006
vn 1.000000 0.000000 0.000002
usemtl Material
s off
f 1/1/1 4/2/1 2/3/1
f 5/1/2 6/2/2 7/4/2
f 1/1/3 2/2/3 5/3/3
f 2/1/4 3/2/4 6/3/4
f 3/1/5 4/2/5 7/3/5
f 5/5/6 8/6/6 1/7/6
f 4/2/7 3/4/7 2/3/7
f 8/3/8 5/1/8 7/4/8
f 2/2/9 6/4/9 5/3/9
f 3/2/4 7/4/4 6/3/4
f 4/2/10 8/4/10 7/3/10
f 8/6/6 4/8/6 1/7/6
o Cube
v -0.287054 0.690689 0.020940
v -0.287054 0.690689 -0.020940
v 0.287054 0.690689 -0.020940
v 0.287054 0.690689 0.020940
v -0.287055 0.007536 0.020940
v -0.287054 0.007536 -0.020940
v 0.287055 0.007536 -0.020940
v 0.287054 0.007536 0.020940
vt 0.006130 0.995201
vt 0.996403 1.000269
vt 0.145487 0.856141
vt 0.142953 0.141325
vt 0.854513 0.141325
vt 0.991336 0.004799
vt 0.001063 0.997735
vt 0.145061 0.863446
vt 0.003597 -0.002802
vt 0.155622 0.843176
vt 0.846912 0.845709
vt 0.153088 0.151757
vt 0.857472 0.850777
vt 0.998937 0.995201
vt 0.860006 0.154291
vt -0.001471 0.997735
vt 0.998937 0.997735
vt 0.000877 -0.002147
vt 0.859581 0.856141
vt 0.011198 0.004799
vt 0.150129 0.146689
vt 0.844378 0.151757
vt 0.998937 0.004799
vt 0.998937 -0.000268
vn 0.000000 1.000000 0.000000
vn 0.000000 -1.000000 -0.000000
vn -1.000000 0.000000 0.000000
vn 0.000000 0.000000 -1.000000
vn 1.000000 0.000000 0.000003
vn -0.000000 -0.000000 1.000000
vn -1.000000 -0.000000 -0.000008
usemtl Frame
s off
f 9/9/11 12/10/11 10/11/11
f 13/12/12 14/13/12 15/14/12
f 9/15/13 10/16/13 13/17/13
f 10/18/14 11/19/14 14/20/14
f 11/21/15 12/22/15 15/23/15
f 13/24/16 16/25/16 9/26/16
f 12/10/11 11/27/11 10/11/11
f 16/28/12 13/12/12 15/14/12
f 10/16/17 14/29/17 13/17/17
f 11/19/14 15/30/14 14/20/14
f 12/22/15 16/31/15 15/23/15
f 16/25/16 12/32/16 9/26/16
